# xmcd
#
# Track frame offsets:
#	150
#	12430
#	23355
#	40735
#	58450
#	72615
#	84332
#	95035
#	110017
#	126625
#	140497
#	158440
#	170419
#	182446
#	195789
#	216435
#	232775
#	245381
#	257484
#	275626
#	291703
#	308553
#
# Disc length: 4297 seconds
#
# Revision: 0
# Processed by: cddbd v1.4PL0 Copyright (c) Steve Scherf et al.
# Submitted via: EasyCDDAExtractor 5.0.2.1
#
DISCID=3b10c716
DTITLE=Danni Leigh - Two on One
DYEAR=1900
DGENRE=Country
TTITLE0=If the jukebox took teardrops
TTITLE1=Beatin' my head against the wall
TTITLE2=29  nights
TTITLE3=How does it feel to you
TTITLE4=Teardrops, teardrops
TTITLE5=Ol' lonesome
TTITLE6=Mixed up mess of a heart
TTITLE7=Touch me
TTITLE8=I feel a heartache
TTITLE9=Chain me
TTITLE10=Weren't you the one
TTITLE11=Chain gang
TTITLE12=Longnecks, cigarettes
TTITLE13=Trying to get over you
TTITLE14=What'cha gonna do
TTITLE15=Shiver of lonesome
TTITLE16=Honey I do
TTITLE17=Little things
TTITLE18=Can't build of better love
TTITLE19=I don't feel that way anymore
TTITLE20=Back in your arms again
TTITLE21=Cruel heart
EXTD=
EXTT0=
EXTT1=
EXTT2=
EXTT3=
EXTT4=
EXTT5=
EXTT6=
EXTT7=
EXTT8=
EXTT9=
EXTT10=
EXTT11=
EXTT12=
EXTT13=
EXTT14=
EXTT15=
EXTT16=
EXTT17=
EXTT18=
EXTT19=
EXTT20=
EXTT21=
PLAYORDER=
